<svg width="241" height="100" viewBox="0 0 341 93" fill="none" xmlns="http://www.w3.org/2000/svg">
<path d="M105.968 32.0236C101.578 32.0236 98.9691 34.1668 98.9527 37.0817C98.9117 40.3169 102.358 41.6636 105.533 42.419L109.168 43.3305C114.994 44.7099 120.541 47.7809 120.557 54.4977C120.541 61.3294 115.15 65.9687 105.862 65.9687C96.5732 65.9687 91.1085 61.6332 90.8213 53.9311C92.2162 53.7258 94.1526 53.6848 95.9742 54.6373C97.2214 55.286 97.5742 55.9593 98.6984 56.9282C99.0922 57.2731 102.292 59.9663 105.804 59.9663C110.383 59.9663 113.525 57.7493 113.542 54.4402C113.525 51.4267 110.76 50.1211 106.584 49.0619L102.177 47.9287C95.8019 46.2783 91.8469 43.0841 91.8469 37.5169C91.8305 30.6606 97.9353 26.0787 106.075 26.0787C114.215 26.0787 119.901 30.7181 120.04 37.2706C119.326 37.3773 118.243 37.4512 117.004 37.1474C115.076 36.6712 114.19 35.6037 112.672 34.5445C111.868 33.9861 108.98 32.0236 105.985 32.0236H105.968Z" fill="#F1694D"/>
<path d="M143.679 48.8566L154.937 36.3017C153.312 35.9322 151.95 35.8665 150.998 35.8829C149.768 35.9076 148.734 35.9404 147.536 36.4741C146.666 36.8683 146.034 37.3774 145.648 37.7387L136.491 47.978H136.015V30.5457C135.909 29.9955 135.572 28.7474 134.473 27.7292C132.348 25.7667 129.377 26.5468 129.164 26.6043V65.3775C129.706 65.4925 133.39 66.2069 135.064 64.1541C135.228 63.957 135.925 63.4479 135.95 61.6415L136.015 55.6062L138.51 52.9376L146.051 63.4808C146.781 64.0555 147.889 64.7781 149.374 65.2544C152.131 66.1412 154.527 65.6649 155.593 65.3693L143.671 48.8402L143.679 48.8566Z" fill="#F1694D"/>
<path d="M178.618 38.9704C178.569 38.6419 178.421 37.9193 177.847 37.3117C177.223 36.663 176.46 36.5152 175.91 36.4249C173.645 36.039 171.783 37.3035 171.561 37.4677C169.731 38.7487 169.215 40.629 169.091 41.1545H168.788C168.804 40.8097 168.812 40.3088 168.771 39.6929C168.73 38.9622 168.698 38.5926 168.55 38.256C168.263 37.5991 167.738 37.2542 167.336 36.9833C166.745 36.5891 166.154 36.4003 165.662 36.3099H162.142V65.3858L166.884 65.1559C167.196 65.0655 168.041 64.7699 168.657 63.9406C168.993 63.4808 169.141 63.021 169.206 62.7254L168.985 48.2983C168.985 44.6032 171.766 41.9921 175.533 41.9921C176.69 41.9921 178.126 42.1974 178.708 42.3862C178.675 41.2531 178.642 40.1117 178.61 38.9786L178.618 38.9704Z" fill="#F1694D"/>
<path d="M185.411 28.4682C185.411 26.4072 187.192 24.7404 189.382 24.7404C191.573 24.7404 193.337 26.4072 193.337 28.4682C193.337 30.5292 191.557 32.1797 189.382 32.1797C187.208 32.1797 185.411 30.5128 185.411 28.4682ZM187.791 36.3017H190.95C191.967 36.3017 192.796 37.1311 192.796 38.1492V63.53C192.796 64.5482 191.967 65.3776 190.95 65.3776H187.791C186.773 65.3776 185.944 64.5482 185.944 63.53V38.1492C185.944 37.1311 186.773 36.3017 187.791 36.3017V36.3017Z" fill="#F1694D"/>
<path d="M217.929 35.924C212.801 35.924 210.668 39.0114 209.626 41.1134H209.232V38.0917C208.977 37.5991 208.575 37.0243 207.935 36.5562C205.703 34.9222 202.717 36.2114 202.495 36.3099V76.2902H206.68C206.983 76.2245 207.722 76.0357 208.378 75.3788C209.158 74.5987 209.305 73.6708 209.338 73.3834C209.338 69.1875 209.338 64.9916 209.338 60.8039H209.626C210.7 62.9224 212.957 65.8948 217.946 65.8948C224.797 65.8948 229.917 60.459 229.917 50.8848C229.917 41.3105 224.641 35.9322 217.921 35.9322L217.929 35.924ZM216.034 60.2702C211.66 60.2702 209.207 56.4848 209.207 50.8437C209.207 45.2026 211.628 41.5486 216.034 41.5486C220.44 41.5486 222.943 45.4325 222.943 50.8437C222.943 56.2549 220.563 60.2702 216.034 60.2702Z" fill="#F1694D"/>
<path d="M251.3 60.615C250.168 59.9581 249.044 60.2784 248.108 59.3423C247.345 58.5786 247.214 57.4701 247.214 56.6326V41.5979H252.95C253.032 41.1627 253.114 40.4729 252.999 39.6436C252.909 39.0114 252.818 38.3627 252.334 37.7222C251.637 36.7943 250.595 36.5316 250.266 36.4659C249.905 36.392 249.84 36.4413 248.716 36.392C248.076 36.3591 247.55 36.3181 247.214 36.2935V32.2453C247.05 31.5638 246.779 31.0876 246.525 30.7591C245.335 29.2072 242.923 28.7063 240.363 29.3221V36.2852C240.059 36.2852 239.641 36.2935 239.124 36.3099C238.032 36.3509 237.844 36.3838 237.647 36.4577C236.949 36.7122 236.555 37.2213 236.465 37.3445C236.252 37.6319 236.079 38.0014 235.948 38.9703C235.858 39.6026 235.792 40.514 235.874 41.6307C237.368 41.6143 238.861 41.6061 240.354 41.5897V57.7575C240.313 63.2262 244.293 65.9194 249.438 65.7634C251.391 65.706 252.728 65.3282 253.466 65.0819C253.13 62.2573 252.17 61.1077 251.292 60.5986L251.3 60.615Z" fill="#F1694D"/>
<path d="M62.168 44.8249L59.7475 44.8003L59.7393 44.7839L62.168 44.8249Z" fill="url(#paint0_linear_150_2)"/>
<path d="M59.748 44.8003L62.1686 44.8249L61.947 36.3263C61.947 35.8419 61.4137 35.5627 61.0198 35.8419L48.5806 44.6607C48.2852 44.866 48.2524 45.2929 48.5232 45.5475L66.6815 62.9224C66.903 63.1359 66.9112 63.5054 66.6897 63.7353L63.4896 67.0033C63.2599 67.2415 62.8988 67.2497 62.6691 67.0198L39.5384 44.8988C39.2758 44.6443 39.3086 44.2173 39.604 44.012L67.0179 24.5679C67.4117 24.2887 67.9533 24.5843 67.9369 25.0524V44.8988L70.9646 44.9317C71.4405 44.9399 71.6949 45.5064 71.3913 45.8677L65.3194 53.0443C65.0896 53.3235 64.6548 53.3071 64.4332 53.0197C62.587 50.581 60.7408 48.1422 58.8947 45.7035C58.6075 45.334 58.8782 44.7921 59.3541 44.7921H59.748V44.8003Z" fill="url(#paint1_linear_150_2)"/>
<defs>
<linearGradient id="paint0_linear_150_2" x1="60.0346" y1="44.4226" x2="61.9551" y2="45.2345" gradientUnits="userSpaceOnUse">
<stop stop-color="#FF563C"/>
<stop offset="0.53" stop-color="#F1694D"/>
<stop offset="0.59" stop-color="#F26D4A"/>
<stop offset="1" stop-color="#FF8C39"/>
</linearGradient>
<linearGradient id="paint1_linear_150_2" x1="75.2068" y1="41.4091" x2="44.0194" y2="55.1626" gradientUnits="userSpaceOnUse">
<stop stop-color="#FF563C"/>
<stop offset="0.53" stop-color="#F1694D"/>
<stop offset="0.59" stop-color="#F26D4A"/>
<stop offset="1" stop-color="#FF8C39"/>
</linearGradient>
</defs>
</svg>
