<svg width="215" height="53" viewBox="0 0 215 53" fill="none" xmlns="http://www.w3.org/2000/svg">
<path d="M66.9682 8.02376C62.5784 8.02376 59.9691 10.1669 59.9527 13.0819C59.9117 16.3171 63.3579 17.6637 66.5334 18.4191L70.1683 19.3306C75.994 20.7101 81.5408 23.781 81.5572 30.4978C81.5408 37.3295 76.1499 41.9688 66.8616 41.9688C57.5732 41.9688 52.1085 37.6333 51.8213 29.9312C53.2162 29.7259 55.1526 29.6849 56.9742 30.6374C58.2214 31.2861 58.5742 31.9594 59.6984 32.9283C60.0922 33.2732 63.2923 35.9665 66.8041 35.9665C71.3827 35.9665 74.5253 33.7494 74.5417 30.4403C74.5253 27.4268 71.7601 26.1212 67.5836 25.062L63.1774 23.9288C56.8019 22.2784 52.8469 19.0842 52.8469 13.5171C52.8305 6.6607 58.9353 2.07886 67.0749 2.07886C75.2145 2.07886 80.9008 6.71818 81.0403 13.2707C80.3264 13.3775 79.2433 13.4514 78.0043 13.1475C76.0761 12.6713 75.1899 11.6038 73.672 10.5446C72.8678 9.98624 69.9796 8.02376 66.9846 8.02376H66.9682Z" fill="#F1694D"/>
<path d="M104.679 24.8565L115.937 12.3016C114.312 11.9321 112.95 11.8664 111.998 11.8828C110.768 11.9074 109.734 11.9403 108.536 12.474C107.666 12.8682 107.034 13.3772 106.648 13.7385L97.4914 23.9779H97.0155V6.54553C96.9088 5.99538 96.5724 4.74728 95.4729 3.72909C93.3477 1.76662 90.3774 2.54668 90.1641 2.60416V41.3774C90.7056 41.4924 94.3898 42.2068 96.0637 40.154C96.2278 39.9569 96.9252 39.4478 96.9498 37.6413L97.0155 31.6061L99.5099 28.9375L107.051 39.4806C107.781 40.0554 108.889 40.778 110.374 41.2543C113.131 42.1411 115.527 41.6648 116.593 41.3692L104.671 24.8401L104.679 24.8565Z" fill="#F1694D"/>
<path d="M139.618 14.9702C139.569 14.6418 139.421 13.9192 138.847 13.3116C138.223 12.6629 137.46 12.5151 136.91 12.4248C134.645 12.0388 132.783 13.3034 132.561 13.4676C130.731 14.7485 130.215 16.6289 130.091 17.1544H129.788C129.804 16.8095 129.812 16.3087 129.771 15.6928C129.73 14.962 129.698 14.5925 129.55 14.2559C129.263 13.599 128.738 13.2541 128.336 12.9831C127.745 12.589 127.154 12.4001 126.662 12.3098H123.142V41.3857L127.884 41.1557C128.196 41.0654 129.041 40.7698 129.657 39.9405C129.993 39.4807 130.141 39.0208 130.206 38.7252L129.985 24.2982C129.985 20.6031 132.766 17.992 136.533 17.992C137.69 17.992 139.126 18.1972 139.708 18.3861C139.675 17.253 139.642 16.1116 139.61 14.9785L139.618 14.9702Z" fill="#F1694D"/>
<path d="M146.411 4.46812C146.411 2.40711 148.192 0.740234 150.382 0.740234C152.573 0.740234 154.337 2.40711 154.337 4.46812C154.337 6.52913 152.557 8.17958 150.382 8.17958C148.208 8.17958 146.411 6.5127 146.411 4.46812ZM148.791 12.3016H151.95C152.967 12.3016 153.796 13.1309 153.796 14.1491V39.5299C153.796 40.5481 152.967 41.3774 151.95 41.3774H148.791C147.773 41.3774 146.944 40.5481 146.944 39.5299V14.1491C146.944 13.1309 147.773 12.3016 148.791 12.3016V12.3016Z" fill="#F1694D"/>
<path d="M178.929 11.9241C173.801 11.9241 171.668 15.0115 170.626 17.1136H170.232V14.0918C169.977 13.5992 169.575 13.0244 168.935 12.5564C166.703 10.9223 163.717 12.2115 163.495 12.31V52.2903H167.68C167.983 52.2246 168.722 52.0358 169.378 51.3789C170.158 50.5988 170.305 49.671 170.338 49.3836C170.338 45.1876 170.338 40.9917 170.338 36.804H170.626C171.7 38.9225 173.957 41.895 178.946 41.895C185.797 41.895 190.917 36.4591 190.917 26.8849C190.917 17.3106 185.641 11.9323 178.921 11.9323L178.929 11.9241ZM177.034 36.2703C172.66 36.2703 170.207 32.4849 170.207 26.8438C170.207 21.2027 172.628 17.5488 177.034 17.5488C181.44 17.5488 183.943 21.4327 183.943 26.8438C183.943 32.255 181.563 36.2703 177.034 36.2703Z" fill="#F1694D"/>
<path d="M212.3 36.6151C211.168 35.9582 210.044 36.2785 209.108 35.3424C208.345 34.5788 208.214 33.4702 208.214 32.6327V17.598H213.95C214.032 17.1628 214.114 16.4731 213.999 15.6437C213.909 15.0115 213.818 14.3628 213.334 13.7223C212.637 12.7945 211.595 12.5317 211.266 12.466C210.905 12.3921 210.84 12.4414 209.716 12.3921C209.076 12.3593 208.55 12.3182 208.214 12.2936V8.24546C208.05 7.56393 207.779 7.08768 207.525 6.75923C206.335 5.20731 203.923 4.70643 201.363 5.32227V12.2854C201.059 12.2854 200.641 12.2936 200.124 12.31C199.032 12.3511 198.844 12.3839 198.647 12.4578C197.949 12.7123 197.555 13.2214 197.465 13.3446C197.252 13.632 197.079 14.0015 196.948 14.9704C196.858 15.6027 196.792 16.5141 196.874 17.6309C198.368 17.6144 199.861 17.6062 201.354 17.5898V33.7576C201.313 39.2263 205.293 41.9196 210.438 41.7636C212.391 41.7061 213.728 41.3284 214.466 41.082C214.13 38.2574 213.17 37.1078 212.292 36.5987L212.3 36.6151Z" fill="#F1694D"/>
<path d="M20.748 20.8002L23.1686 20.8248L22.947 12.3263C22.947 11.8418 22.4137 11.5626 22.0198 11.8418L9.58061 20.6606C9.28522 20.8659 9.2524 21.2929 9.52318 21.5474L27.6815 38.9223C27.903 39.1358 27.9112 39.5053 27.6897 39.7352L24.4896 43.0033C24.2599 43.2414 23.8988 43.2496 23.6691 43.0197L0.538391 20.8987C0.275822 20.6442 0.308644 20.2172 0.604034 20.0119L28.0179 0.567829C28.4117 0.288648 28.9533 0.584251 28.9369 1.05229V20.8987L31.9646 20.9316C32.4405 20.9398 32.6949 21.5064 32.3913 21.8677L26.3194 29.0443C26.0896 29.3234 25.6548 29.307 25.4332 29.0196C23.587 26.5809 21.7408 24.1422 19.8947 21.7034C19.6075 21.3339 19.8782 20.792 20.3541 20.792H20.748V20.8002Z" fill="url(#paint0_linear_158_11)"/>
<defs>
<linearGradient id="paint0_linear_158_11" x1="36.2068" y1="17.409" x2="5.01936" y2="31.1626" gradientUnits="userSpaceOnUse">
<stop stop-color="#FF563C"/>
<stop offset="0.53" stop-color="#F1694D"/>
<stop offset="0.59" stop-color="#F26D4A"/>
<stop offset="1" stop-color="#FF8C39"/>
</linearGradient>
</defs>
</svg>
