<svg width="50" height="50" viewBox="0 0 58 58" fill="none" xmlns="http://www.w3.org/2000/svg">
<path d="M29 0C23.2643 0 17.6575 1.70082 12.8885 4.88738C8.11945 8.07395 4.40245 12.6031 2.20751 17.9022C0.0125653 23.2012 -0.561731 29.0322 0.55724 34.6576C1.67621 40.2831 4.43819 45.4504 8.49391 49.5061C12.5496 53.5618 17.7169 56.3238 23.3424 57.4428C28.9678 58.5618 34.7988 57.9875 40.0978 55.7925C45.3969 53.5976 49.9261 49.8806 53.1126 45.1116C56.2992 40.3425 58 34.7357 58 29C57.9917 21.3113 54.9337 13.9398 49.4969 8.50309C44.0602 3.06634 36.6887 0.00831595 29 0V0ZM29 53.1667C24.2203 53.1667 19.5479 51.7493 15.5737 49.0939C11.5995 46.4384 8.50204 42.6641 6.67292 38.2482C4.84381 33.8323 4.36523 28.9732 5.2977 24.2853C6.23018 19.5975 8.53183 15.2914 11.9116 11.9116C15.2914 8.53182 19.5975 6.23017 24.2853 5.29769C28.9732 4.36521 33.8323 4.8438 38.2482 6.67291C42.6641 8.50203 46.4384 11.5995 49.0938 15.5737C51.7493 19.5479 53.1667 24.2203 53.1667 29C53.1596 35.4072 50.6112 41.5501 46.0806 46.0807C41.55 50.6113 35.4072 53.1596 29 53.1667Z" fill="#F3694D"/>
<path d="M30.7324 12.2355C29.3388 11.9816 27.9064 12.0371 26.5366 12.398C25.1668 12.759 23.893 13.4166 22.8055 14.3243C21.718 15.232 20.8432 16.3676 20.2431 17.6508C19.6431 18.934 19.3324 20.3334 19.333 21.75C19.333 22.3909 19.5876 23.0056 20.0408 23.4588C20.494 23.912 21.1087 24.1666 21.7497 24.1666C22.3906 24.1666 23.0053 23.912 23.4585 23.4588C23.9117 23.0056 24.1663 22.3909 24.1663 21.75C24.1657 21.0389 24.322 20.3365 24.624 19.6928C24.9261 19.0491 25.3664 18.4799 25.9136 18.026C26.4609 17.572 27.1015 17.2443 27.7899 17.0663C28.4784 16.8884 29.1976 16.8645 29.8963 16.9964C30.8509 17.1817 31.7287 17.6474 32.4174 18.334C33.1062 19.0206 33.5746 19.8969 33.7629 20.851C33.9531 21.8524 33.8218 22.8884 33.3877 23.8107C32.9537 24.7331 32.2392 25.4946 31.3463 25.9864C29.8677 26.843 28.6458 28.0805 27.8081 29.5698C26.9703 31.0592 26.5473 32.7459 26.583 34.4544V36.25C26.583 36.8909 26.8376 37.5056 27.2908 37.9588C27.744 38.412 28.3587 38.6666 28.9997 38.6666C29.6406 38.6666 30.2553 38.412 30.7085 37.9588C31.1617 37.5056 31.4163 36.8909 31.4163 36.25V34.4544C31.386 33.6134 31.5778 32.7793 31.9723 32.036C32.3669 31.2927 32.9503 30.6665 33.6638 30.2204C35.4147 29.2587 36.8247 27.7782 37.6999 25.9825C38.575 24.1868 38.8724 22.1641 38.551 20.1925C38.2297 18.2209 37.3054 16.3973 35.9053 14.9724C34.5052 13.5475 32.6981 12.5914 30.7324 12.2355Z" fill="#F3694D"/>
<path d="M31.4163 43.5C31.4163 42.1653 30.3344 41.0833 28.9997 41.0833C27.665 41.0833 26.583 42.1653 26.583 43.5C26.583 44.8347 27.665 45.9166 28.9997 45.9166C30.3344 45.9166 31.4163 44.8347 31.4163 43.5Z" fill="#F3694D"/>
</svg>
